<?xml version="1.0" encoding="utf-8"?>
<!-- Generator: Adobe Illustrator 16.0.0, SVG Export Plug-In . SVG Version: 6.00 Build 0)  -->
<!DOCTYPE svg PUBLIC "-//W3C//DTD SVG 1.1//EN" "http://www.w3.org/Graphics/SVG/1.1/DTD/svg11.dtd">
<svg version="1.1" id="Layer_1" xmlns="http://www.w3.org/2000/svg" xmlns:xlink="http://www.w3.org/1999/xlink" x="0px" y="0px"
	 width="195.675px" height="22.787px" viewBox="0 0 195.675 22.787" enable-background="new 0 0 195.675 22.787"
	 xml:space="preserve">
<g>
	<path fill="#0189A3" d="M7.438,1.083h1.654v11.173c0,1.718-0.133,2.912-0.399,3.583c-0.267,0.672-0.711,1.208-1.333,1.609
		S5.982,18.05,5.097,18.05c-0.667,0-1.326-0.129-1.975-0.388s-1.367-0.715-2.154-1.367l0.877-1.316
		c0.864,0.607,1.582,1.035,2.153,1.282c0.376,0.165,0.744,0.248,1.105,0.248c0.473,0,0.904-0.143,1.291-0.428
		c0.387-0.285,0.657-0.664,0.812-1.137c0.154-0.473,0.231-1.388,0.231-2.745V1.083z"/>
	<path fill="#0189A3" d="M24.319,13.572l1.328,0.697c-0.436,0.855-0.938,1.545-1.509,2.07c-0.57,0.525-1.212,0.925-1.926,1.198
		s-1.521,0.411-2.421,0.411c-1.998,0-3.559-0.654-4.685-1.964c-1.126-1.309-1.689-2.788-1.689-4.438c0-1.553,0.477-2.937,1.43-4.152
		c1.209-1.545,2.827-2.318,4.854-2.318c2.087,0,3.753,0.792,5,2.374c0.886,1.118,1.336,2.513,1.351,4.186H15.037
		c0.03,1.422,0.484,2.588,1.363,3.497c0.878,0.909,1.964,1.363,3.256,1.363c0.623,0,1.229-0.108,1.819-0.325
		c0.59-0.216,1.091-0.504,1.504-0.862S23.839,14.372,24.319,13.572z M24.319,10.275c-0.21-0.84-0.517-1.511-0.918-2.014
		c-0.402-0.502-0.933-0.907-1.594-1.215c-0.661-0.308-1.355-0.461-2.084-0.461c-1.202,0-2.234,0.386-3.098,1.159
		c-0.631,0.563-1.108,1.407-1.431,2.532H24.319z"/>
	<path fill="#0189A3" d="M35.181,0.667v1.542c-0.578-0.248-1.073-0.371-1.485-0.371c-0.308,0-0.563,0.062-0.765,0.186
		c-0.202,0.124-0.33,0.267-0.382,0.428c-0.053,0.161-0.079,0.59-0.079,1.288l-0.001,1.654h2.555v1.362h-2.556l-0.009,10.88h-1.575
		V6.754h-1.609V5.392h1.609V3.479c0-0.877,0.08-1.504,0.242-1.879c0.161-0.375,0.435-0.677,0.821-0.906
		c0.386-0.229,0.853-0.343,1.401-0.343C33.857,0.352,34.468,0.457,35.181,0.667z"/>
	<path fill="#0189A3" d="M43.568,0.667v1.542c-0.578-0.248-1.073-0.371-1.485-0.371c-0.308,0-0.563,0.062-0.765,0.186
		c-0.202,0.124-0.33,0.267-0.382,0.428c-0.053,0.161-0.079,0.59-0.079,1.288l-0.001,1.654h2.555v1.362h-2.556l-0.009,10.88H39.27
		V6.754h-1.609V5.392h1.609V3.479c0-0.877,0.08-1.504,0.242-1.879c0.161-0.375,0.435-0.677,0.821-0.906
		c0.386-0.229,0.853-0.343,1.401-0.343C42.244,0.352,42.855,0.457,43.568,0.667z"/>
	<path fill="#0189A3" d="M46.915,0.667h1.575v6.92c0.637-0.84,1.339-1.468,2.104-1.885c0.765-0.416,1.594-0.625,2.486-0.625
		c0.915,0,1.727,0.233,2.436,0.698c0.709,0.465,1.232,1.089,1.569,1.874c0.338,0.784,0.506,2.012,0.506,3.685v6.301h-1.575v-5.839
		c0-1.41-0.056-2.352-0.168-2.824c-0.195-0.81-0.55-1.419-1.063-1.828c-0.514-0.409-1.187-0.613-2.02-0.613
		c-0.953,0-1.806,0.315-2.56,0.945c-0.754,0.63-1.251,1.411-1.491,2.34c-0.15,0.6-0.225,1.71-0.225,3.331v4.489h-1.575V0.667z"/>
	<path fill="#0189A3" d="M74.316,5.392v12.242h-1.553v-2.104c-0.66,0.803-1.401,1.407-2.222,1.812
		c-0.821,0.405-1.72,0.608-2.695,0.608c-1.732,0-3.212-0.629-4.438-1.885c-1.227-1.257-1.839-2.785-1.839-4.585
		c0-1.763,0.619-3.271,1.856-4.523c1.237-1.252,2.727-1.879,4.467-1.879c1.005,0,1.915,0.214,2.729,0.642
		c0.813,0.427,1.528,1.069,2.143,1.924v-2.25H74.316z M68.021,6.596c-0.877,0-1.686,0.215-2.428,0.646
		c-0.742,0.431-1.332,1.036-1.77,1.815c-0.438,0.779-0.657,1.604-0.657,2.472c0,0.862,0.221,1.686,0.663,2.472
		c0.442,0.787,1.036,1.399,1.781,1.838c0.746,0.438,1.545,0.657,2.4,0.657c0.861,0,1.678-0.217,2.45-0.651s1.365-1.022,1.781-1.765
		c0.416-0.741,0.624-1.577,0.624-2.506c0-1.416-0.467-2.6-1.399-3.551C70.533,7.072,69.384,6.596,68.021,6.596z"/>
	<path fill="#0189A3" d="M79.012,5.392h1.575v2.194c0.63-0.84,1.328-1.468,2.093-1.885c0.765-0.416,1.598-0.625,2.498-0.625
		c0.915,0,1.727,0.233,2.436,0.698c0.709,0.465,1.232,1.091,1.569,1.879c0.338,0.788,0.506,2.014,0.506,3.679v6.301h-1.575v-5.839
		c0-1.41-0.059-2.352-0.175-2.824c-0.182-0.81-0.533-1.419-1.05-1.828c-0.518-0.409-1.192-0.613-2.025-0.613
		c-0.953,0-1.806,0.315-2.56,0.945c-0.754,0.63-1.251,1.411-1.491,2.34c-0.15,0.608-0.225,1.718-0.225,3.331v4.489h-1.575V5.392z"/>
	<path fill="#0189A3" d="M94.363,1.083h3.732c2.406,0,4.193,0.298,5.363,0.895c1.168,0.596,2.131,1.566,2.889,2.908
		c0.756,1.343,1.135,2.911,1.135,4.703c0,1.275-0.211,2.447-0.635,3.517c-0.424,1.068-1.008,1.956-1.754,2.66
		c-0.746,0.706-1.553,1.193-2.422,1.463c-0.869,0.271-2.377,0.405-4.52,0.405h-3.789V1.083z M97.491,4.121v10.441h1.463
		c1.439,0,2.484-0.165,3.133-0.496c0.648-0.33,1.18-0.886,1.592-1.667c0.412-0.781,0.619-1.742,0.619-2.883
		c0-1.757-0.492-3.12-1.475-4.089c-0.885-0.871-2.307-1.306-4.264-1.306H97.491z"/>
	<path fill="#0189A3" d="M123.565,12.401h-9.867c0.143,0.871,0.523,1.563,1.142,2.076c0.619,0.514,1.408,0.771,2.369,0.771
		c1.147,0,2.134-0.4,2.959-1.203l2.588,1.215c-0.646,0.915-1.418,1.592-2.318,2.031c-0.899,0.438-1.969,0.658-3.206,0.658
		c-1.921,0-3.484-0.606-4.692-1.817c-1.207-1.211-1.812-2.729-1.812-4.551c0-1.868,0.603-3.418,1.807-4.652
		c1.203-1.234,2.713-1.851,4.528-1.851c1.928,0,3.495,0.617,4.703,1.851c1.207,1.234,1.812,2.863,1.812,4.889L123.565,12.401z
		 M120.494,9.983c-0.203-0.683-0.604-1.238-1.2-1.665c-0.598-0.428-1.291-0.642-2.08-0.642c-0.856,0-1.607,0.24-2.254,0.72
		c-0.405,0.3-0.781,0.829-1.127,1.586H120.494z"/>
	<path fill="#0189A3" d="M134.697,7.103l-1.901,1.901c-0.772-0.765-1.474-1.147-2.104-1.147c-0.346,0-0.615,0.073-0.811,0.219
		c-0.195,0.146-0.293,0.328-0.293,0.546c0,0.165,0.063,0.317,0.187,0.456c0.123,0.139,0.429,0.328,0.917,0.568l1.125,0.563
		c1.185,0.585,1.999,1.181,2.441,1.789c0.442,0.607,0.664,1.32,0.664,2.138c0,1.088-0.399,1.995-1.198,2.723
		s-1.87,1.092-3.213,1.092c-1.785,0-3.21-0.698-4.275-2.093l1.891-2.06c0.359,0.42,0.781,0.76,1.266,1.019
		c0.483,0.259,0.913,0.388,1.288,0.388c0.405,0,0.731-0.097,0.979-0.292c0.248-0.195,0.372-0.42,0.372-0.675
		c0-0.473-0.446-0.935-1.339-1.385l-1.035-0.517c-1.98-0.998-2.971-2.247-2.971-3.747c0-0.968,0.373-1.795,1.119-2.481
		c0.747-0.687,1.701-1.03,2.864-1.03c0.795,0,1.543,0.174,2.244,0.523C133.615,5.949,134.209,6.45,134.697,7.103z"/>
	<path fill="#0189A3" d="M139.692,0.352c0.538,0,1,0.195,1.386,0.585c0.385,0.39,0.577,0.863,0.577,1.418
		c0,0.547-0.19,1.015-0.572,1.401c-0.381,0.386-0.837,0.579-1.368,0.579c-0.546,0-1.012-0.197-1.396-0.59
		c-0.386-0.394-0.578-0.872-0.578-1.435c0-0.54,0.19-1.001,0.572-1.384C138.693,0.543,139.153,0.352,139.692,0.352z M138.156,5.392
		h3.072v12.242h-3.072V5.392z"/>
	<path fill="#0189A3" d="M154.216,5.392h3.061v10.487c0,2.07-0.416,3.593-1.249,4.567c-1.117,1.32-2.802,1.98-5.052,1.98
		c-1.2,0-2.209-0.15-3.026-0.45c-0.818-0.3-1.508-0.74-2.07-1.322c-0.563-0.581-0.979-1.288-1.249-2.12h3.387
		c0.3,0.345,0.687,0.605,1.159,0.781c0.472,0.177,1.031,0.265,1.676,0.265c0.825,0,1.489-0.127,1.992-0.383
		c0.502-0.255,0.856-0.585,1.063-0.989c0.206-0.405,0.31-1.104,0.31-2.093c-0.54,0.54-1.106,0.928-1.699,1.164
		c-0.592,0.236-1.264,0.354-2.014,0.354c-1.643,0-3.03-0.593-4.163-1.777c-1.133-1.186-1.699-2.686-1.699-4.501
		c0-1.942,0.601-3.503,1.801-4.681c1.087-1.065,2.385-1.598,3.893-1.598c0.705,0,1.371,0.129,1.997,0.388
		c0.627,0.259,1.255,0.685,1.885,1.277V5.392z M151.033,7.946c-0.968,0-1.767,0.325-2.396,0.973
		c-0.631,0.649-0.945,1.465-0.945,2.447c0,1.02,0.322,1.857,0.968,2.509c0.645,0.652,1.455,0.979,2.43,0.979
		c0.953,0,1.738-0.318,2.357-0.956s0.928-1.474,0.928-2.509c0-1.02-0.311-1.849-0.934-2.486
		C152.818,8.265,152.015,7.946,151.033,7.946z"/>
	<path fill="#0189A3" d="M161.535,5.392h3.071v1.255c0.697-0.587,1.328-0.996,1.894-1.225c0.565-0.23,1.144-0.345,1.735-0.345
		c1.214,0,2.243,0.424,3.09,1.271c0.712,0.72,1.067,1.785,1.067,3.195v8.09h-3.038v-5.361c0-1.46-0.065-2.431-0.196-2.91
		s-0.359-0.845-0.685-1.096c-0.326-0.251-0.728-0.376-1.207-0.376c-0.621,0-1.154,0.208-1.599,0.624
		c-0.445,0.416-0.755,0.991-0.927,1.725c-0.09,0.382-0.135,1.21-0.135,2.484v4.911h-3.071V5.392z"/>
</g>
</svg>
